<?xml version="1.0" encoding="utf-8"?>
<!-- Generator: Adobe Illustrator 28.1.0, SVG Export Plug-In . SVG Version: 6.00 Build 0)  -->
<svg version="1.1" id="Layer_1" xmlns="http://www.w3.org/2000/svg" xmlns:xlink="http://www.w3.org/1999/xlink" x="0px" y="0px"
	 viewBox="0 0 115.21 50.7" style="enable-background:new 0 0 115.21 50.7;" xml:space="preserve">
<style type="text/css">
	<!--color -->
	.st0{fill:hsl(206.5, 69%, 38.3%);}
</style>
<g id="logo">
	<g>
		<path class="st0" d="M24.9,23.5l-2.27-4.31v6.38h-6.91l-2.07-2.07V0.01h6.72l2.07,2.07l2.27,4.31V0.01h6.91l2.07,2.07v23.49h-6.72
			L24.9,23.5z M19.18,9.63l6.55,12.49h4.5V1.39h-4.15v12.49L19.54,1.39h-4.5v20.73h4.15V9.63z"/>
		<path class="st0" d="M35.41,23.16C33.8,21.54,33,19.13,33,15.9V7.61c0-5.07,2.53-7.6,7.6-7.6h2.76c3.22,0,5.64,0.81,7.25,2.42
			c1.61,1.61,2.42,4.03,2.42,7.25v8.29c0,5.07-2.53,7.6-7.6,7.6h-2.76C39.44,25.57,37.03,24.77,35.41,23.16z M43.36,1.39H40.6
			c-4.15,0-6.22,2.07-6.22,6.22v8.29c0,4.15,2.07,6.22,6.22,6.22h2.76c4.15,0,6.22-2.07,6.22-6.22V7.61
			C49.58,3.47,47.5,1.39,43.36,1.39z M45.43,7.61v8.29c0,1.38-0.69,2.07-2.07,2.07H40.6c-1.38,0-2.07-0.69-2.07-2.07V7.61
			c0-1.38,0.69-2.07,2.07-2.07h2.76C44.74,5.54,45.43,6.23,45.43,7.61z M41.98,16.59h1.38c0.46,0,0.69-0.23,0.69-0.69V8.99
			c-1.38,0-2.07,0.69-2.07,2.07V16.59z"/>
		<path class="st0" d="M62.7,21.83l-1.38-2.64v6.38h-6.91l-2.07-2.07V0.01h6.72l2.07,2.07l2.07,3.92l3.15-6h6.72l2.07,2.07v23.49
			h-6.91l-2.07-2.07v-2.24l-1.38,2.64L62.7,21.83z M57.87,9.63l4.84,9.22l4.84-9.22v12.49h4.15V1.39h-4.5L62.7,9.93l-4.48-8.54h-4.5
			v20.73h4.15V9.63z"/>
		<path class="st0" d="M87.16,23.5l-0.18-0.69H83.9l-0.75,2.76h-7.13l-2.07-2.07l6.3-23.49h7.74l2.07,2.07l6.3,23.49h-7.13
			L87.16,23.5z M87.47,19.36l0.75,2.76h4.28L86.94,1.39H81.3l-5.55,20.73h4.28l0.75-2.76H87.47z M86.36,15.21h-4.48l2.24-8.35
			L86.36,15.21z"/>
		<path class="st0" d="M95.18,23.5V0.01h10.36c3.22,0,5.64,0.81,7.25,2.42c1.61,1.61,2.42,4.03,2.42,7.25v8.29
			c0,5.07-2.53,7.6-7.6,7.6H97.25L95.18,23.5z M96.56,1.39v20.73h8.98c4.15,0,6.22-2.07,6.22-6.22V7.61c0-4.15-2.07-6.22-6.22-6.22
			H96.56z M100.7,5.54h4.84c1.38,0,2.07,0.69,2.07,2.07v8.29c0,1.38-0.69,2.07-2.07,2.07h-4.84V5.54z M104.16,8.99v7.6h1.38
			c0.46,0,0.69-0.23,0.69-0.69V9.68c0-0.46-0.23-0.69-0.69-0.69H104.16z"/>
	</g>
	<g>
		<path class="st0" d="M8.87,29.4l1.36-2.65h7.28l1.94,1.94l-5.64,11l5.64,11h-7.28l-1.94-1.94L8.87,46.1v4.6H2.4l-1.94-1.94V26.75
			h6.47l1.94,1.94V29.4z M5.64,39.7h1.41l3.99,7.77h4.35l-4.97-9.71l4.97-9.71h-4.35l-3.99,7.77H5.64v-7.77H1.75v19.42h3.88V39.7z"
			/>
		<path class="st0" d="M17.29,48.76V26.75h6.47l1.94,1.94V50.7h-6.47L17.29,48.76z M22.46,47.46V28.05h-3.88v19.42H22.46z"/>
		<path class="st0" d="M25.05,33.22v-6.47h16.83l1.94,1.94v6.47h-5.18V50.7h-6.47l-1.94-1.94V35.17H27L25.05,33.22z M35.41,31.93
			h5.18v-3.88H26.35v3.88h5.18v15.53h3.88V31.93z"/>
		<path class="st0" d="M45.44,48.43c-1.51-1.51-2.27-3.78-2.27-6.8v-7.77c0-4.75,2.37-7.12,7.12-7.12h2.59
			c3.02,0,5.29,0.76,6.8,2.27c1.51,1.51,2.27,3.78,2.27,6.8v1.94h-6.47l-1.94-1.94v-0.65h-1.29c-0.43,0-0.65,0.22-0.65,0.65v6.47
			h1.29c0.43,0,0.65-0.22,0.65-0.65V39.7h6.47l1.94,1.94v1.94c0,4.75-2.37,7.12-7.12,7.12h-2.59C49.22,50.7,46.95,49.95,45.44,48.43
			z M58.71,33.87c0-3.88-1.94-5.83-5.83-5.83H50.3c-3.88,0-5.83,1.94-5.83,5.83v7.77c0,3.88,1.94,5.83,5.83,5.83h2.59
			c3.88,0,5.83-1.94,5.83-5.83v-0.65h-3.88v0.65c0,1.29-0.65,1.94-1.94,1.94H50.3c-1.29,0-1.94-0.65-1.94-1.94v-7.77
			c0-1.29,0.65-1.94,1.94-1.94h2.59c1.29,0,1.94,0.65,1.94,1.94v0.65h3.88V33.87z"/>
		<path class="st0" d="M71.66,48.76v-5.83h-1.94v7.77h-6.47l-1.94-1.94V26.75h6.47l1.94,1.94v5.83h1.94v-7.77h6.47l1.94,1.94V50.7
			H73.6L71.66,48.76z M66.48,39.7h6.47v7.77h3.88V28.05h-3.88v7.77h-6.47v-7.77H62.6v19.42h3.88V39.7z"/>
		<path class="st0" d="M93.67,35.17l1.94,1.29v6.47l1.29,1.29v6.47H81.37l-1.94-1.94V26.75h15.53l1.94,1.94v6.47H93.67z M84.6,43.58
			V39.7h7.77v-3.88H84.6v-3.88h9.06v-3.88H80.72v19.42h12.95v-3.88H84.6z"/>
		<path class="st0" d="M106.79,48.76l-2.12-4.04v5.98H98.2l-1.94-1.94V26.75h6.29l1.94,1.94l2.12,4.04v-5.98h6.47l1.94,1.94V50.7
			h-6.29L106.79,48.76z M101.43,35.76l6.14,11.7h4.22V28.05h-3.88v11.7l-6.14-11.7h-4.22v19.42h3.88V35.76z"/>
	</g>
	<g>
		<path class="st0" d="M3.1,25.72H0v-8.06l0.93-0.93h3.1v2.48h7.44v3.1l-0.93,0.93H4.03v1.55L3.1,25.72z M2.48,20.76v-2.48H0.62
			v6.82h1.86v-2.48h7.44v-1.86H2.48z"/>
		<path class="st0" d="M10.54,12.09H7.75v0.93h3.72v3.1l-0.93,0.93H0v-3.1l0.93-0.93h2.79v-0.93H0v-3.1l0.93-0.93h10.54v3.1
			L10.54,12.09z M6.2,14.56v-3.1h3.72V9.61h-9.3v1.86h3.72v3.1H0.62v1.86h9.3v-1.86H6.2z"/>
		<path class="st0" d="M4.03,1.55l0.62-0.93h3.1L8.37,0h3.1v7.44l-0.93,0.93H0V0.93L0.93,0h3.1V1.55z M8.06,5.89H6.2V2.17H4.34v3.72
			H2.48V1.55H0.62v6.2h9.3v-6.2H8.06V5.89z"/>
	</g>
</g>
</svg>
